.
..............................Site Info...........................

 -   http://www.scenetime.com  *_*    

Scenetime .Always on time . friendly online private torrent community ..

     We care to share . Join us on  http://www.scenetime.com 

    Be the first to get new release at  http://www.scenetime.com

        Seed back for speed


...................................NFO:.................................................[center][img]http://lookpic.com/O/i2/1779/WvIE2VmT.jpeg[/img][/center]
 
http://www.imdb.com/title/tt1864526/

[pre][b]Moving.Day.2012.DVDRip.XviD.AC3-PROJECT X

Source: R1 Retail DVD9

Format                                   : AVI
Format/Info                              : Audio Video Interleave
File size                                : 1.57 GiB
Duration                                 : 1h 34mn
Overall bit rate                         : 2 367 Kbps
Writing library                          : VirtualDub build 32842/release

Video
ID                                       : 0
Format                                   : MPEG-4 Visual
Format profile                           : Advanced Simple@L5
Format settings, BVOP                    : 2
Format settings, QPel                    : No
Format settings, GMC                     : No warppoints
Format settings, Matrix                  : Default (H.263)
Muxing mode                              : Packed bitstream
Codec ID                                 : XVID
Codec ID/Hint                            : XviD
Duration                                 : 1h 34mn
Bit rate                                 : 1 910 Kbps
Width                                    : 720 pixels
Height                                   : 304 pixels
Display aspect ratio                     : 2.35:1
Frame rate                               : 23.976 fps
Color space                              : YUV
Chroma subsampling                       : 4:2:0
Bit depth                                : 8 bits
Scan type                                : Progressive
Compression mode                         : Lossy
Bits/(Pixel*Frame)                       : 0.364
Stream size                              : 1.27 GiB (81%)
Writing library                          : XviD 64

Audio
ID                                       : 1
Format                                   : AC-3
Format/Info                              : Audio Coding 3
Mode extension                           : CM (complete main)
Format settings, Endianness              : Big
Codec ID                                 : 2000
Duration                                 : 1h 34mn
Bit rate mode                            : Constant
Bit rate                                 : 448 Kbps
Channel(s)                               : 6 channels
Channel positions                        : Front: L C R, Side: L R, LFE
Sampling rate                            : 48.0 KHz
Bit depth                                : 16 bits
Compression mode                         : Lossy
Stream size                              : 304 MiB (19%)
Alignment                                : Aligned on interleaves
Interleave, duration                     : 42 ms (1.00 video frame)
Interleave, preload duration             : 512 ms

SCREENS:[/b][/pre]

[center][img]http://lookpic.com/O/i2/239/LY9pcUIL.png[/img][/center]
[center][img]http://lookpic.com/O/i2/297/PY6WXWlR.png[/img][/center]
[center][img]http://lookpic.com/O/i2/1749/fersxNrC.png[/img][/center]
[center][img]http://lookpic.com/O/i2/1125/dj1SeGwm.png[/img][/center]
[center][img]http://lookpic.com/O/i2/106/nGbFlNuy.png[/img][/center]